<?xml version="1.0" encoding="utf-8"?>
<!-- Generator: Adobe Illustrator 24.1.0, SVG Export Plug-In . SVG Version: 6.00 Build 0)  -->
<svg version="1.1" id="Your_design" xmlns="http://www.w3.org/2000/svg" xmlns:xlink="http://www.w3.org/1999/xlink" x="0px"
	 y="0px" width="418px" height="379px" viewBox="0 0 418 379" style="enable-background:new 0 0 418 379;" xml:space="preserve">
<style type="text/css">
	.st0{fill:#0E4366;}
	.st1{fill:#5FC6FF;}
	.st2{fill:#2196F3;}
</style>
<g>
	<polygon class="st0" points="387.88,254.526 348.081,254.526 360.711,65.131 	"/>
	<path class="st1" d="M360.716,65.138l-12.635,189.376v0.021l-4.96,74.306l-37.677-208.864h-0.021
		c-1.769-21.297-8.93-39.942-20.495-54.839H360.716z"/>
	<polygon class="st0" points="216.17,328.845 93.96,328.845 94.52,319.585 98.87,248.565 161.36,248.565 161.52,248.795 	"/>
	<path class="st0" d="M243.156,138.436c-1.688,27.512-16.01,55.931-69.059,55.931h-71.94l6.853-112.334h71.94
		C227.27,82.032,245.09,106.89,243.156,138.436z"/>
	<path class="st0" d="M343.122,328.841h-52.617l-59.552-86.056c37.945-10.022,65.807-46.794,73.051-89.801v-0.02
		c0.782-4.63,1.337-9.342,1.626-14.096c0.391-6.503,0.33-12.8-0.206-18.891h0.021L343.122,328.841z"/>
	<g>
		<path class="st2" d="M290.51,328.845l-59.56-86.06c37.95-10.02,65.81-46.79,73.05-89.8v-0.02c0.79-4.63,1.34-9.34,1.63-14.1
			c0.39-6.5,0.33-12.8-0.21-18.89c-1.77-21.29-8.93-39.94-20.49-54.84c-18.6-23.93-48.57-38.19-85.79-38.19H86.91
			c-20.8,0-38.01,16.18-39.28,36.94l-17.51,288.17h62.43l1.41-23.21l0.56-9.26l4.35-71.02h62.49l0.16,0.23l54.65,80.05l15.85,23.21
			h74.56L290.51,328.845z M174.1,194.365h-71.94l6.85-112.33h71.94c46.32,0,64.14,24.86,62.21,56.4
			C241.47,165.945,227.15,194.365,174.1,194.365z"/>
	</g>
</g>
</svg>
