<?xml version="1.0" encoding="utf-8"?>
<!-- Generator: Adobe Illustrator 24.1.0, SVG Export Plug-In . SVG Version: 6.00 Build 0)  -->
<svg version="1.1" id="Your_design" xmlns="http://www.w3.org/2000/svg" xmlns:xlink="http://www.w3.org/1999/xlink" x="0px"
	 y="0px" width="1000px" height="379px" viewBox="0 0 1000 379" style="enable-background:new 0 0 1000 379;" xml:space="preserve">
<style type="text/css">
	.st0{fill:#2196F3;}
	.st1{fill:#0E4366;}
	.st2{fill:#5FC6FF;}
</style>
<g>
	<path class="st0" d="M489.002,215.733v35.341h-21.081V140.046h50.355c22.6,0,38.224,15.775,38.224,38.223
		c0,16.684-9.102,31.701-23.056,35.492l27.757,37.313h-25.329l-25.787-35.341H489.002z M489.002,197.229h24.268
		c17.898,0,22.146-9.707,22.146-19.112c0-10.768-6.522-19.263-22.146-19.263h-24.268V197.229z"/>
	<path class="st0" d="M688.914,140.046v111.028h-21.233v-56.121l-34.735,41.712l-34.583-41.712v56.121h-21.235V140.046h1.367
		l54.451,64.16l54.603-64.16H688.914z"/>
	<path class="st0" d="M713.338,206.329v-66.283h21.233v66.283c0,22.297,16.533,28.061,26.393,28.061s26.393-5.764,26.393-28.061
		v-66.283h21.235v66.283c0,28.364-18.657,46.717-47.628,46.717C732.145,253.046,713.338,234.692,713.338,206.329z"/>
	<path class="st0" d="M855.612,251.074h-21.233V140.046h21.233V251.074z"/>
	<path class="st0" d="M902.632,158.854v29.729h53.542v18.808h-53.542v43.683h-21.235V140.046H963v18.808H902.632z"/>
</g>
<polygon class="st1" points="393.35,262.361 353.551,262.361 366.181,72.966 "/>
<path class="st2" d="M366.186,72.973l-12.635,189.376v0.021l-4.96,74.306l-37.677-208.864h-0.021
	c-1.769-21.297-8.93-39.942-20.495-54.839H366.186z"/>
<polygon class="st1" points="221.64,336.68 99.43,336.68 99.99,327.42 104.34,256.4 166.83,256.4 166.99,256.63 "/>
<path class="st1" d="M248.626,146.271c-1.688,27.512-16.01,55.931-69.059,55.931h-71.94l6.853-112.334h71.94
	C232.74,89.867,250.56,114.725,248.626,146.271z"/>
<path class="st1" d="M348.592,336.676h-52.617l-59.552-86.056c37.945-10.022,65.807-46.794,73.051-89.801v-0.02
	c0.782-4.63,1.337-9.342,1.626-14.096c0.391-6.503,0.33-12.8-0.206-18.891h0.021L348.592,336.676z"/>
<g>
	<path class="st0" d="M295.98,336.68l-59.56-86.06c37.95-10.02,65.81-46.79,73.05-89.8v-0.02c0.79-4.63,1.34-9.34,1.63-14.1
		c0.39-6.5,0.33-12.8-0.21-18.89c-1.77-21.29-8.93-39.94-20.49-54.84c-18.6-23.93-48.57-38.19-85.79-38.19H92.38
		c-20.8,0-38.01,16.18-39.28,36.94L35.59,359.89h62.43l1.41-23.21l0.56-9.26l4.35-71.02h62.49l0.16,0.23l54.65,80.05l15.85,23.21
		h74.56L295.98,336.68z M179.57,202.2h-71.94l6.85-112.33h71.94c46.32,0,64.14,24.86,62.21,56.4
		C246.94,173.78,232.62,202.2,179.57,202.2z"/>
</g>
</svg>
