<?xml version="1.0" encoding="utf-8"?>
<!-- Generator: Adobe Illustrator 24.1.0, SVG Export Plug-In . SVG Version: 6.00 Build 0)  -->
<svg version="1.1" id="Your_design" xmlns="http://www.w3.org/2000/svg" xmlns:xlink="http://www.w3.org/1999/xlink" x="0px"
	 y="0px" width="418px" height="379px" viewBox="0 0 418 379" style="enable-background:new 0 0 418 379;" xml:space="preserve">
<style type="text/css">
	.st0{fill:#FFFFFF;}
</style>
<polygon class="st0" points="387.35,260 356.34,260 365.5,107.66 "/>
<path class="st0" d="M359.186,64.973l-12.635,189.376v0.021l-4.96,74.306l-37.677-208.864h-0.021
	c-1.769-21.297-8.93-39.942-20.495-54.839H359.186z"/>
<path class="st0" d="M332.79,328.68h-35.3l-2.76-3.99l-54.2-78.32c16.07-6.2,30.59-17.1,42.41-31.92
	c9.57-12.01,16.95-26.03,21.8-41.26L332.79,328.68z"/>
<g>
	<path class="st0" d="M289.389,328.826l-59.56-86.06c37.95-10.02,65.81-46.79,73.05-89.8v-0.02c0.79-4.63,1.34-9.34,1.63-14.1
		c0.39-6.5,0.33-12.8-0.21-18.89c-1.77-21.29-8.93-39.94-20.49-54.84c-18.6-23.93-48.57-38.19-85.79-38.19H85.789
		c-20.8,0-38.01,16.18-39.28,36.94l-17.51,288.17h62.43l1.41-23.21l0.56-9.26l4.35-71.02h62.49l0.16,0.23l54.65,80.05l15.85,23.21
		h74.56L289.389,328.826z M172.979,194.346h-71.94l6.85-112.33h71.94c46.32,0,64.14,24.86,62.21,56.4
		C240.349,165.926,226.029,194.346,172.979,194.346z"/>
</g>
</svg>
